<svg width="239" height="30" viewBox="0 0 239 30" fill="none" xmlns="http://www.w3.org/2000/svg">
<mask id="mask0_557_318" style="mask-type:alpha" maskUnits="userSpaceOnUse" x="0" y="0" width="239" height="30">
<rect width="239" height="30" fill="#C4C4C4"/>
</mask>
<g mask="url(#mask0_557_318)">
</g>
<g clip-path="url(#clip0_557_318)">
<path d="M0 7.2122H9.01195V29.4247H16.232V7.2122H25.2364V0.582031H0V7.2122Z" fill="white"/>
<path d="M41.5953 0.582031L30.1195 29.4471H37.8248L39.9005 23.7428H49.6964L51.7347 29.4471H59.4326L47.994 0.60443L41.5953 0.582031ZM42.1852 17.5009L44.7984 10.4078L47.3743 17.5009H42.1852Z" fill="white"/>
<path d="M88.6635 17.1126L75.4256 0.582031H68.5042V29.4247H75.7168V12.3939L89.3205 29.4247H95.8686V0.582031H88.6635V17.1126Z" fill="white"/>
<path d="M119.261 18.8079H124.002V23.0786L123.748 23.1458C122.873 23.3993 121.964 23.5151 121.053 23.4893C115.953 23.4893 111.981 19.7561 111.981 14.9925C111.981 10.9905 115.408 6.68243 120.941 6.68243C124.194 6.84271 127.359 7.7935 130.162 9.45247L131.02 9.91538V2.12046L130.684 1.99353C127.551 0.714056 124.205 0.0376974 120.821 0C111.6 0 104.395 6.58537 104.395 14.9925C104.395 23.2728 111.6 30 120.44 30C124.019 30.0348 127.565 29.3175 130.849 27.8945L131.185 27.7377V12.2225H119.238L119.261 18.8079Z" fill="white"/>
<path d="M158.698 16.9107C159.924 16.1555 160.933 15.0954 161.626 13.8339C162.32 12.5724 162.675 11.1526 162.655 9.7131C162.655 6.32335 160.557 0.574219 152.688 0.574219H142.72V29.4468H149.955V18.9938H151.314L158.84 29.4468H167.904L158.407 17.1272L158.698 16.9107ZM151.979 12.5877H149.933V7.21185H152.061C154.241 7.21185 155.428 8.12275 155.428 9.83255C155.428 11.0794 154.838 12.5877 151.993 12.5877" fill="white"/>
<path d="M183.853 0.582031L172.377 29.4471H180.067L182.135 23.7428H191.954L194.029 29.4471H201.705L190.236 0.60443L183.853 0.582031ZM184.443 17.5009L187.056 10.4078L189.662 17.5009H184.443Z" fill="white"/>
<path d="M223.462 10.6016L215.07 0.574219H208.492V29.4244H215.697V11.8336L223.462 20.8903L231.212 11.8336V29.4244H238.417V0.574219H231.847L223.462 10.6016Z" fill="white"/>
</g>
<defs>
<clipPath id="clip0_557_318">
<rect width="238.417" height="30" fill="white"/>
</clipPath>
</defs>
</svg>
