<svg width="38" height="38" viewBox="0 0 38 38" fill="none" xmlns="http://www.w3.org/2000/svg">
<path d="M19 21.5C20.3807 21.5 21.5 20.3807 21.5 19C21.5 17.6193 20.3807 16.5 19 16.5C17.6193 16.5 16.5 17.6193 16.5 19C16.5 20.3807 17.6193 21.5 19 21.5Z" fill="white"/>
<path d="M23 10H15C13.6739 10 12.4022 10.5268 11.4645 11.4644C10.5268 12.4021 10 13.6739 10 15V23C10 24.3261 10.5268 25.5978 11.4645 26.5355C12.4022 27.4732 13.6739 28 15 28H23C24.3261 28 25.5979 27.4732 26.5356 26.5355C27.4733 25.5978 28 24.3261 28 23V15C28 13.6739 27.4733 12.4021 26.5356 11.4644C25.5979 10.5268 24.3261 10 23 10ZM19 23C18.2089 23 17.4356 22.7654 16.7778 22.3259C16.12 21.8863 15.6073 21.2616 15.3045 20.5307C15.0018 19.7998 14.9226 18.9956 15.0769 18.2196C15.2312 17.4437 15.6122 16.731 16.1716 16.1716C16.731 15.6122 17.4437 15.2312 18.2197 15.0768C18.9956 14.9225 19.7999 15.0017 20.5308 15.3045C21.2617 15.6072 21.8864 16.1199 22.3259 16.7777C22.7655 17.4355 23 18.2089 23 19C23 20.0609 22.5786 21.0783 21.8284 21.8284C21.0783 22.5786 20.0609 23 19 23ZM24 15C23.8022 15 23.6089 14.9413 23.4445 14.8315C23.28 14.7216 23.1519 14.5654 23.0762 14.3827C23.0005 14.1999 22.9806 13.9989 23.0192 13.8049C23.0578 13.6109 23.1531 13.4327 23.2929 13.2929C23.4328 13.153 23.611 13.0578 23.8049 13.0192C23.9989 12.9806 24.2 13.0004 24.3827 13.0761C24.5654 13.1518 24.7216 13.28 24.8315 13.4444C24.9414 13.6089 25 13.8022 25 14C25 14.2652 24.8947 14.5196 24.7072 14.7071C24.5196 14.8946 24.2652 15 24 15Z" fill="white"/>
</svg>
