<svg width="194" height="16" viewBox="0 0 194 16" fill="none" xmlns="http://www.w3.org/2000/svg">
<g clip-path="url(#clip0_415_1592)">
<path d="M6.10794 15.9587C2.7825 15.9587 1.16826 14.4491 0.024231 12.0961L2.06991 10.8568C2.59345 12.3012 3.56296 13.9226 5.94797 13.9226C7.37316 13.9226 8.70624 12.9395 8.70624 11.5184C8.70624 8.187 1.04707 8.91851 1.04707 4.25456C1.04707 1.71525 3.11698 0.000631447 5.80739 0.000631447C6.80493 -0.0138567 7.78925 0.221194 8.66375 0.682711C9.53825 1.14423 10.2729 1.81635 10.7955 2.63313L9.01649 4.00296C8.73045 3.42619 8.28159 2.93824 7.72107 2.59473C7.16055 2.25121 6.51091 2.06595 5.84617 2.06004C4.01379 2.06004 3.49025 3.22485 3.49025 4.00762C3.49025 6.72398 11.1543 6.31397 11.1543 11.2575C11.1474 11.8856 11.011 12.5061 10.753 13.0832C10.495 13.6604 10.1206 14.1826 9.65133 14.6198C9.18207 15.057 8.6273 15.4004 8.01909 15.6302C7.41089 15.86 6.76132 15.9717 6.10794 15.9587Z" fill="white"/>
<path d="M29.0079 15.6831V3.5689L23.2974 10.5206L17.5967 3.56424V15.6784H15.3183V0.302734H17.5967L23.2974 7.40815L29.0079 0.302734H31.3153V15.6784L29.0079 15.6831Z" fill="white"/>
<path d="M47.3123 15.6822L45.6981 11.7964H38.4267L36.8076 15.6822H34.3839L41.0105 0.162109H43.1483L49.7798 15.6822H47.3123ZM42.0576 2.69676L39.2557 9.8115H44.8885L42.0576 2.69676Z" fill="white"/>
<path d="M62.5338 15.6823L57.5359 8.82382H55.4418V15.6823H53.1634V0.306641H57.7298C61.4188 0.306641 62.7907 2.75742 62.7907 4.56057C62.7938 5.40423 62.5226 6.22775 62.015 6.91607C61.5075 7.6044 60.7889 8.12314 59.9597 8.39982L65.292 15.6683L62.5338 15.6823ZM57.4196 2.31013H55.4418V6.8343H57.4438C59.5573 6.8343 60.3523 5.73471 60.3523 4.50466C60.362 3.15812 59.2762 2.31013 57.4196 2.31013Z" fill="white"/>
<path d="M72.7573 2.31178V15.6839H70.474V2.31178H65.4083V0.322266H77.8181V2.31178H72.7573Z" fill="white"/>
<path d="M91.5659 15.6823L86.5777 8.82382H84.4836V15.6823H82.2149V0.306641H86.7765C90.4703 0.306641 91.8422 2.75742 91.8422 4.56057C91.8471 5.40399 91.5772 6.22773 91.0703 6.91625C90.5635 7.60478 89.8452 8.12356 89.0161 8.39982L94.3484 15.6683L91.5659 15.6823ZM86.4517 2.31013H84.4739V6.8343H86.4711C88.5943 6.8343 89.3796 5.73471 89.3796 4.50466C89.3942 3.15812 88.3035 2.31013 86.4517 2.31013Z" fill="white"/>
<path d="M105.042 16.0047C100.384 16.0047 96.5589 12.7059 96.5589 8.00465C96.5589 3.30343 100.384 0 105.042 0C109.701 0 113.535 3.29411 113.535 8.00465C113.535 12.7152 109.71 16.0047 105.042 16.0047ZM105.042 2.0594C103.814 2.03627 102.606 2.36519 101.573 3.00424C100.54 3.6433 99.7286 4.56353 99.2418 5.64764C98.755 6.73175 98.6151 7.93063 98.8399 9.09146C99.0647 10.2523 99.6441 11.3225 100.504 12.1657C101.364 13.0088 102.466 13.5867 103.669 13.8257C104.872 14.0647 106.122 13.954 107.259 13.5076C108.397 13.0613 109.37 12.2995 110.055 11.3195C110.74 10.3394 111.106 9.18543 111.106 8.00465C111.126 7.22862 110.983 6.45673 110.687 5.73462C110.391 5.01251 109.947 4.35485 109.381 3.80055C108.816 3.24625 108.14 2.80656 107.395 2.5075C106.65 2.20843 105.85 2.05606 105.042 2.0594Z" fill="white"/>
<path d="M122.881 9.55532H120.191V15.6823H117.912V0.306641H122.76C126.798 0.306641 128.296 2.68288 128.296 4.8774C128.267 8.06901 125.586 9.55532 122.881 9.55532ZM122.571 2.31013H120.191V7.56581H122.668C124.544 7.56581 125.804 6.65725 125.804 4.93797C125.804 3.61473 125.063 2.31013 122.571 2.31013Z" fill="white"/>
<path d="M131.912 15.6823V0.306641H142.019V2.29615H134.195V6.4336H140.308V8.41846H134.195V13.7068H142.019V15.6963L131.912 15.6823Z" fill="white"/>
<path d="M151.729 0.144531H155.365V12.7759H162.098V16.0047H151.729V0.144531Z" fill="white"/>
<path d="M164.241 0.144531H175.448V3.36876H167.876V6.32741H175.031V9.55164H167.876V12.7759H175.87V16.0047H164.236L164.241 0.144531Z" fill="white"/>
<path d="M178.783 0.144769H184.237C185.504 0.137886 186.768 0.280281 187.999 0.568766C189.123 0.830344 190.181 1.30562 191.111 1.96655C192.009 2.61819 192.731 3.46639 193.22 4.44063C193.767 5.59305 194.034 6.85032 194 8.11681C194.026 9.29008 193.767 10.453 193.244 11.5134C192.757 12.466 192.061 13.3054 191.203 13.9735C190.323 14.6523 189.318 15.166 188.241 15.4878C187.105 15.8356 185.919 16.0101 184.727 16.005H178.783V0.144769ZM182.419 12.7761H184.305C185.093 12.7831 185.879 12.7002 186.646 12.5292C187.324 12.3864 187.963 12.1086 188.522 11.7138C189.061 11.3211 189.489 10.8054 189.768 10.2135C190.093 9.4972 190.248 8.72071 190.224 7.93976C190.242 7.23889 190.086 6.54395 189.768 5.91297C189.481 5.35465 189.063 4.86814 188.546 4.49189C188.004 4.10393 187.391 3.81781 186.738 3.64856C186.03 3.45964 185.297 3.36556 184.562 3.369H182.419V12.7761Z" fill="white"/>
</g>
<defs>
<clipPath id="clip0_415_1592">
<rect width="194" height="16" fill="white"/>
</clipPath>
</defs>
</svg>
