<svg width="38" height="38" viewBox="0 0 38 38" fill="none" xmlns="http://www.w3.org/2000/svg">
<path d="M14.6806 20.2592C14.6806 20.4192 14.4606 20.4491 14.1406 20.3691C13.0206 19.7791 12.3406 18.4391 12.1406 16.3691C12.2943 15.318 12.6328 14.3023 13.1406 13.3691C13.6648 12.521 14.3678 11.7975 15.2006 11.2491C16.3693 10.5291 17.718 10.1547 19.0906 10.1692C20.429 10.0312 21.7773 10.3106 22.9506 10.9691C23.7763 11.4724 24.4771 12.1562 25.0006 12.9691C25.5015 13.9004 25.8205 14.9185 25.9406 15.9691C25.9234 17.3046 25.6307 18.6221 25.0806 19.8391C24.6923 20.8852 23.9347 21.7531 22.9506 22.2791C22.1751 22.69 21.3175 22.9223 20.4406 22.9591C19.4738 22.8827 18.5742 22.4347 17.9306 21.7091L17.3006 23.9991C17.1261 24.8076 16.8186 25.5815 16.3906 26.2892C16.0106 26.8592 15.7906 27.2191 15.7006 27.3691C15.6078 27.5009 15.5041 27.6247 15.3906 27.7391C15.2806 27.8491 15.2006 27.8992 15.1606 27.8892C15.1206 27.8792 15.0606 27.7691 15.0406 27.5791C14.9706 26.3391 14.9306 25.5791 14.9306 25.2691C14.9838 24.7282 15.0673 24.1907 15.1806 23.6591L16.4106 18.2491C16.2161 17.7671 16.0981 17.2576 16.0606 16.7391C16.0176 16.0704 16.2203 15.409 16.6306 14.8791C16.7874 14.6469 16.9949 14.4534 17.2374 14.313C17.4799 14.1727 17.7512 14.0893 18.0306 14.0692C18.2381 14.0375 18.4503 14.0648 18.643 14.1479C18.8357 14.231 19.0012 14.3666 19.1206 14.5392C19.3039 14.8437 19.4167 15.1854 19.4506 15.5392C19.4456 16.0443 19.3681 16.546 19.2206 17.0291C19.0406 17.7091 18.8406 18.3291 18.6406 18.8691C18.5438 19.1853 18.5242 19.5201 18.5833 19.8455C18.6425 20.1708 18.7787 20.4773 18.9806 20.7391C19.4206 21.4491 20.1806 21.5091 21.2606 20.9291C21.786 20.6443 22.2143 20.209 22.4906 19.6791C22.7664 19.1566 22.978 18.6026 23.1206 18.0291C23.2687 17.3516 23.3557 16.6622 23.3806 15.9691C23.4452 15.2294 23.2814 14.4876 22.9113 13.8439C22.5411 13.2002 21.9824 12.6854 21.3106 12.3691C20.6557 12.0883 19.953 11.9356 19.2406 11.9192C18.3347 11.8793 17.4344 12.0794 16.6306 12.4991C16.0578 12.8107 15.5565 13.2385 15.1587 13.7551C14.7609 14.2717 14.4754 14.8658 14.3206 15.4991C14.2083 15.9106 14.1412 16.3331 14.1206 16.7592C14.1668 17.5036 14.4044 18.2235 14.8106 18.8492C14.9293 19.0475 14.9652 19.2846 14.9106 19.5092L14.6806 20.2592Z" fill="white"/>
</svg>
