<svg width="201" height="16" viewBox="0 0 201 16" fill="none" xmlns="http://www.w3.org/2000/svg">
<g clip-path="url(#clip0_415_1650)">
<path d="M5.88429 15.9584C2.68062 15.9584 1.12548 14.4488 0.0233459 12.0959L1.99412 10.8612C2.49848 12.3009 3.4325 13.9223 5.73018 13.9223C7.10318 13.9223 8.38745 12.9392 8.38745 11.5181C8.38745 8.18675 1.00873 8.91826 1.00873 4.25431C1.00873 1.715 3.00285 0.000379789 5.59474 0.000379789C6.5572 -0.0108728 7.50601 0.2281 8.3478 0.69377C9.18958 1.15944 9.89533 1.83576 10.3956 2.65618L8.68633 4.00272C8.40739 3.43135 7.97417 2.94896 7.43543 2.60983C6.89668 2.2707 6.27377 2.08827 5.63678 2.08308C3.87149 2.08308 3.36712 3.24791 3.36712 4.02601C3.36712 6.74238 10.7505 6.33236 10.7505 11.2759C10.7414 11.9028 10.6081 12.5217 10.3582 13.097C10.1083 13.6723 9.74672 14.1925 9.29439 14.6278C8.84206 15.063 8.30788 15.4047 7.72261 15.6331C7.13735 15.8615 6.51258 15.972 5.88429 15.9584Z" fill="white"/>
<path d="M27.9457 15.7018V3.58767L22.4444 10.5393L16.9524 3.58767V15.7018H14.7574V0.326172H16.9524L22.4444 7.43625L27.9457 0.326172H30.1687V15.7018H27.9457Z" fill="white"/>
<path d="M45.5799 15.7008L44.0248 11.815H37.0197L35.4552 15.7008H33.1202L39.5088 0.162109H41.5683L47.9383 15.7008H45.5799ZM40.5176 2.71541L37.8183 9.83014H43.2449L40.5176 2.71541Z" fill="white"/>
<path d="M60.244 15.7018L55.4291 8.84335H53.4117V15.7018H51.2167V0.326172H55.6159C59.1699 0.326172 60.4915 2.77696 60.4915 4.5801C60.4945 5.42377 60.2332 6.24729 59.7443 6.93561C59.2553 7.62394 58.563 8.14267 57.7642 8.41935L62.9013 15.6878L60.244 15.7018ZM55.3171 2.33432H53.4117V6.84918H55.3404C57.3766 6.84918 58.1424 5.75424 58.1424 4.51953C58.1518 3.15902 57.1057 2.31568 55.3171 2.31568V2.33432Z" fill="white"/>
<path d="M70.0931 2.31568V15.7018H67.8935V2.31568H63.0133V0.326172H74.9687V2.32035L70.0931 2.31568Z" fill="white"/>
<path d="M88.213 15.7018L83.4075 8.82471H81.3901V15.7018H79.2045V0.326172H83.599C87.1576 0.326172 88.4792 2.77696 88.4792 4.5801C88.4839 5.42353 88.2239 6.24726 87.7356 6.93578C87.2474 7.62431 86.5553 8.14309 85.7566 8.41935L90.8796 15.7018H88.213ZM83.2861 2.33432H81.3807V6.84918H83.3048C85.3503 6.84918 86.1068 5.75424 86.1068 4.51953C86.1208 3.15902 85.0701 2.31568 83.2861 2.31568V2.33432Z" fill="white"/>
<path d="M101.196 16.0047C96.7079 16.0047 93.0232 12.7106 93.0232 8.00467C93.0232 3.29879 96.7079 0 101.196 0C105.684 0 109.378 3.29413 109.378 8.00467C109.378 12.7152 105.693 16.0047 101.196 16.0047ZM101.196 2.05941C100.013 2.03628 98.8492 2.3652 97.854 3.00425C96.8588 3.6433 96.0769 4.56353 95.6079 5.64764C95.1389 6.73175 95.0041 7.93064 95.2207 9.09147C95.4373 10.2523 95.9954 11.3225 96.8239 12.1657C97.6525 13.0088 98.7139 13.5867 99.8729 13.8257C101.032 14.0647 102.236 13.954 103.332 13.5076C104.427 13.0613 105.365 12.2995 106.025 11.3195C106.685 10.3394 107.038 9.18544 107.038 8.00467C107.056 7.22881 106.918 6.45718 106.633 5.73536C106.347 5.01353 105.919 4.35614 105.374 3.80197C104.83 3.2478 104.18 2.80809 103.462 2.5088C102.744 2.20952 101.974 2.05671 101.196 2.05941Z" fill="white"/>
<path d="M118.382 9.55622H115.79V15.7018H113.595V0.326172H118.265C122.155 0.326172 123.598 2.70241 123.598 4.89693C123.57 8.06991 120.988 9.55622 118.382 9.55622ZM118.083 2.31568H115.79V7.56671H118.176C119.984 7.56671 121.198 6.63485 121.198 4.93886C121.198 3.61563 120.483 2.31568 118.083 2.31568Z" fill="white"/>
<path d="M127.082 15.7018V0.326172H136.819V2.32035H129.282V6.45313H135.171V8.44266H129.282V13.6983H136.819V15.7018H127.082Z" fill="white"/>
<path d="M155.462 0.695003C154.516 0.215945 153.464 -0.0179911 152.403 0.0147362H146.173V15.7725H149.512V10.6472H152.314C153.387 10.6785 154.452 10.4482 155.415 9.9763C156.241 9.56277 156.925 8.91418 157.382 8.11258C157.843 7.26385 158.076 6.31036 158.059 5.34496C158.081 4.37133 157.851 3.4085 157.391 2.54939C156.943 1.75662 156.273 1.11198 155.462 0.695003ZM154.313 6.72412C154.105 7.12306 153.779 7.44841 153.379 7.65598C152.884 7.89659 152.337 8.01181 151.787 7.99145H149.522V2.73577H151.773C152.325 2.71743 152.874 2.82916 153.375 3.06192C153.775 3.26849 154.102 3.59411 154.309 3.99377C154.512 4.42286 154.617 4.89146 154.617 5.36594C154.617 5.84041 154.512 6.30901 154.309 6.7381L154.313 6.72412Z" fill="white"/>
<path d="M169.991 9.96126C170.002 10.5196 169.865 11.071 169.594 11.5594C169.334 12.0245 168.947 12.4059 168.478 12.659C167.954 12.9242 167.375 13.0624 166.787 13.0624C166.2 13.0624 165.62 12.9242 165.096 12.659C164.625 12.4067 164.236 12.0251 163.976 11.5594C163.703 11.0713 163.564 10.52 163.574 9.96126V0.0136719H160.24V10.2641C160.206 11.3136 160.483 12.3498 161.035 13.2437C161.587 14.1376 162.39 14.8497 163.345 15.2915C164.428 15.7648 165.598 16.0092 166.78 16.0092C167.962 16.0092 169.132 15.7648 170.215 15.2915C171.172 14.8521 171.978 14.1408 172.532 13.2465C173.086 12.3523 173.364 11.3149 173.33 10.2641V0.0136719H169.991V9.96126Z" fill="white"/>
<path d="M185.327 9.58474C186.141 9.21941 186.825 8.61676 187.289 7.85615C187.761 7.03683 187.997 6.10318 187.97 5.15841C187.993 4.20994 187.762 3.27256 187.303 2.44206C186.85 1.6648 186.175 1.04014 185.365 0.648226C184.409 0.201028 183.361 -0.0160246 182.306 0.014555H176.076V15.7723H179.415V10.1811H181.853L184.846 15.7723H188.531L185.178 9.64531C185.215 9.64531 185.281 9.60804 185.327 9.58474ZM179.415 2.73559H181.666C182.214 2.71705 182.76 2.81389 183.268 3.0198C183.66 3.18299 183.988 3.46925 184.202 3.83518C184.422 4.24052 184.531 4.69739 184.515 5.15841C184.532 5.61221 184.424 6.06208 184.202 6.45836C183.985 6.81563 183.657 7.09222 183.268 7.24578C182.76 7.43397 182.221 7.52257 181.68 7.5067H179.41L179.415 2.73559Z" fill="white"/>
<path d="M193.663 13.0232V9.25845H200.421V6.51413H193.663V2.75875H200.967V0.00976562H190.329V15.7675H201V13.0232H193.663Z" fill="white"/>
</g>
<defs>
<clipPath id="clip0_415_1650">
<rect width="201" height="16" fill="white"/>
</clipPath>
</defs>
</svg>
