<svg width="230" height="22" viewBox="0 0 230 22" fill="none" xmlns="http://www.w3.org/2000/svg">
<g clip-path="url(#clip0_415_1766)">
<path d="M168.587 5.81055C166.984 5.81055 165.417 6.28461 164.085 7.17278C162.752 8.06095 161.713 9.32334 161.1 10.8003C160.487 12.2773 160.326 13.9025 160.639 15.4705C160.952 17.0384 161.723 18.4787 162.857 19.6091C163.99 20.7395 165.434 21.5093 167.006 21.8212C168.578 22.1331 170.207 21.973 171.688 21.3613C173.168 20.7495 174.434 19.7135 175.324 18.3842C176.215 17.055 176.69 15.4922 176.69 13.8935C176.69 11.7498 175.836 9.69386 174.316 8.178C172.797 6.66215 170.736 5.81055 168.587 5.81055ZM168.587 18.7624C167.622 18.7661 166.679 18.4843 165.875 17.9527C165.071 17.421 164.444 16.6634 164.072 15.7758C163.701 14.8883 163.601 13.9106 163.787 12.9668C163.973 12.0229 164.436 11.1553 165.116 10.4738C165.797 9.7923 166.665 9.32761 167.61 9.13856C168.556 8.94952 169.536 9.04462 170.427 9.41185C171.319 9.77907 172.081 10.4019 172.617 11.2014C173.153 12.0009 173.439 12.9412 173.439 13.9031C173.44 14.5399 173.316 15.1708 173.073 15.7597C172.829 16.3486 172.472 16.8839 172.022 17.3352C171.571 17.7864 171.036 18.1447 170.446 18.3896C169.857 18.6344 169.225 18.7611 168.587 18.7624Z" fill="black"/>
<path d="M186.366 5.81058C184.762 5.80588 183.193 6.27594 181.858 7.16125C180.522 8.04655 179.48 9.3073 178.863 10.7838C178.246 12.2604 178.082 13.8864 178.392 15.4559C178.702 17.0254 179.472 18.4679 180.604 19.6007C181.736 20.7335 183.18 21.5057 184.753 21.8195C186.325 22.1333 187.956 21.9746 189.438 21.3635C190.92 20.7525 192.187 19.7165 193.078 18.3867C193.97 17.057 194.446 15.4932 194.446 13.8936C194.446 11.7539 193.595 9.7016 192.081 8.18642C190.566 6.67125 188.511 5.81687 186.366 5.81058ZM186.366 18.7624C185.402 18.7671 184.457 18.4861 183.653 17.955C182.849 17.424 182.221 16.6667 181.848 15.7792C181.476 14.8917 181.376 13.9139 181.562 12.9697C181.747 12.0256 182.209 11.1575 182.889 10.4755C183.57 9.79357 184.437 9.32841 185.383 9.13897C186.329 8.94954 187.309 9.04437 188.201 9.41145C189.093 9.77853 189.855 10.4013 190.391 11.2009C190.927 12.0006 191.214 12.941 191.214 13.9031C191.216 14.5398 191.092 15.1705 190.849 15.7594C190.606 16.3482 190.25 16.8836 189.8 17.3349C189.349 17.7862 188.814 18.1446 188.225 18.3895C187.636 18.6344 187.004 18.7611 186.366 18.7624Z" fill="black"/>
<path d="M212.22 5.81055H208.989V22.0051H212.22V5.81055Z" fill="black"/>
<path d="M221.935 5.81055C220.62 5.812 219.325 6.13264 218.162 6.7448C216.999 7.35696 216.003 8.24224 215.26 9.32423C214.516 10.4062 214.048 11.6524 213.895 12.9552C213.743 14.2581 213.91 15.5783 214.383 16.8022C214.857 18.026 215.621 19.1165 216.611 19.9797C217.601 20.8429 218.787 21.4527 220.066 21.7566C221.346 22.0605 222.68 22.0493 223.954 21.7239C225.228 21.3986 226.403 20.7689 227.378 19.8892L224.795 17.8162C223.969 18.4316 222.966 18.7651 221.935 18.7671C220.931 18.7662 219.951 18.4542 219.132 17.8742C218.314 17.2941 217.695 16.4747 217.364 15.5292H229.852C229.962 14.9957 230.016 14.4524 230.014 13.9078C230.018 11.7657 229.169 9.7097 227.654 8.19144C226.139 6.67318 224.082 5.81684 221.935 5.81055ZM217.364 12.2865C217.695 11.341 218.313 10.5217 219.132 9.94203C219.951 9.36237 220.931 9.05099 221.935 9.05099C222.939 9.05099 223.918 9.36237 224.737 9.94203C225.556 10.5217 226.174 11.341 226.506 12.2865H217.364Z" fill="black"/>
<path d="M157.275 5.81029C155.126 5.81029 153.065 6.66188 151.545 8.17774C150.026 9.69359 149.172 11.7495 149.172 13.8933V21.9763H152.404V13.8933C152.403 13.257 152.527 12.6267 152.77 12.0384C153.013 11.4501 153.37 10.9153 153.82 10.4645C154.27 10.0137 154.805 9.65582 155.393 9.41118C155.982 9.16654 156.614 9.03998 157.252 9.03873H158.867V5.80078L157.275 5.81029Z" fill="black"/>
<path d="M207.373 5.81055H204.141L199.293 10.6651V5.81055H196.062V22.0003H199.293V17.1458L204.141 22.0003H207.373V20.6595L200.633 13.9078L207.373 7.15137V5.81055Z" fill="black"/>
<path d="M210.609 3.24271C211.502 3.24271 212.225 2.5168 212.225 1.62135C212.225 0.725904 211.502 0 210.609 0C209.717 0 208.993 0.725904 208.993 1.62135C208.993 2.5168 209.717 3.24271 210.609 3.24271Z" fill="black"/>
<path d="M6.00597 21.9527C2.73605 21.9527 1.14876 20.4122 0.0238342 18.011L2.03536 16.751C2.55015 18.2203 3.50348 19.8797 5.84867 19.8797C7.25006 19.8797 8.56089 18.8717 8.56089 17.4262C8.56089 14.0219 1.0296 14.7731 1.0296 10.0136C1.0296 7.42234 3.06495 5.6726 5.71044 5.6726C6.69149 5.65688 7.65974 5.89632 8.5198 6.36738C9.37986 6.83844 10.1021 7.52485 10.6153 8.35901L8.86596 9.75689C8.58236 9.17258 8.14058 8.67904 7.59054 8.33203C7.0405 7.98502 6.40413 7.79838 5.75334 7.7932C3.95155 7.7932 3.43675 8.98187 3.43675 9.78066C3.43675 12.5526 10.9728 12.1295 10.9728 17.1742C10.9642 17.8142 10.8285 18.4461 10.5736 19.0334C10.3188 19.6208 9.94979 20.1519 9.48798 20.5962C9.02616 21.0405 8.48068 21.3891 7.88304 21.622C7.28539 21.8548 6.64742 21.9672 6.00597 21.9527Z" fill="black"/>
<path d="M28.5236 21.671V9.30876L22.9085 16.4028L17.3029 9.30876V21.671H15.0626V5.98047H17.3029L22.9085 13.2361L28.5236 5.98047H30.7925V21.671H28.5236Z" fill="black"/>
<path d="M46.5224 21.6719L44.9351 17.7112H37.7852L36.1931 21.6719H33.8098L40.3258 5.83398H42.4279L48.9486 21.6719H46.5224ZM41.3554 8.42529L38.6003 15.681H44.1391L41.3554 8.42529Z" fill="black"/>
<path d="M61.4897 21.671L56.5753 14.6721H54.5161V21.671H52.2758V5.98047H56.7659C60.3933 5.98047 61.7423 8.48144 61.7423 10.3215C61.7463 11.1833 61.4802 12.0247 60.981 12.7281C60.4819 13.4314 59.7747 13.9615 58.9586 14.2441L64.2019 21.6567L61.4897 21.671ZM56.4609 8.02974H54.5161V12.6418H56.4847C58.563 12.6418 59.3447 11.5245 59.3447 10.2645C59.3542 8.87609 58.2865 8.02974 56.4609 8.02974Z" fill="black"/>
<path d="M71.5425 8.03111V21.6723H69.2974V8.03111H64.3163V5.99609H76.5189V8.03111H71.5425Z" fill="black"/>
<path d="M90.0371 21.671L85.1323 14.6721H83.0731V21.671H80.8423V5.98047H85.3277C88.9599 5.98047 90.3088 8.48144 90.3088 10.3215C90.3146 11.183 90.0497 12.0247 89.5513 12.7282C89.0528 13.4318 88.3459 13.962 87.5299 14.2441L92.7732 21.6567L90.0371 21.671ZM85.0083 8.02974H83.0635V12.6418H85.0274C87.1152 12.6418 87.8874 11.5245 87.8874 10.2645C87.9017 8.87609 86.8292 8.02974 85.0083 8.02974Z" fill="black"/>
<path d="M103.288 21.9995C98.7076 21.9995 94.9467 18.6379 94.9467 13.8357C94.9467 9.03344 98.7076 5.67188 103.288 5.67188C107.869 5.67188 111.639 9.03344 111.639 13.8357C111.639 18.6379 107.879 21.9995 103.288 21.9995ZM103.288 7.7687C102.081 7.74509 100.893 8.08074 99.8774 8.73287C98.8616 9.38501 98.0635 10.3241 97.5849 11.4304C97.1062 12.5367 96.9686 13.7602 97.1896 14.9448C97.4107 16.1294 97.9804 17.2215 98.8261 18.0819C99.6717 18.9423 100.755 19.5321 101.938 19.7759C103.121 20.0198 104.35 19.9068 105.468 19.4513C106.587 18.9958 107.544 18.2185 108.218 17.2184C108.891 16.2182 109.251 15.0406 109.251 13.8357C109.27 13.0439 109.129 12.2565 108.838 11.5199C108.546 10.7833 108.109 10.1125 107.553 9.54694C106.998 8.98142 106.334 8.53271 105.601 8.22729C104.869 7.92188 104.082 7.76594 103.288 7.7687Z" fill="black"/>
<path d="M120.83 15.4233H118.184V21.671H115.944V5.98047H120.71C124.681 5.98047 126.154 8.41012 126.154 10.6448C126.125 13.9066 123.489 15.4233 120.83 15.4233ZM120.525 8.02974H118.184V13.3883H120.62C122.465 13.3883 123.704 12.4611 123.704 10.7066C123.704 9.35155 122.975 8.02974 120.525 8.02974Z" fill="black"/>
<path d="M129.71 21.671V5.98047H139.648V8.01548H131.955V12.2329H137.966V14.2632H131.955V19.6312H139.648V21.6567L129.71 21.671Z" fill="black"/>
</g>
<defs>
<clipPath id="clip0_415_1766">
<rect width="230" height="22" fill="white"/>
</clipPath>
</defs>
</svg>
