<svg width="92" height="12" viewBox="0 0 92 12" fill="none" xmlns="http://www.w3.org/2000/svg">
<g clip-path="url(#clip0_627_147)">
<path d="M0 2.88449H3.47751V11.7695H6.26356V2.88449H9.73819V0.232422H0V2.88449Z" fill="black"/>
<path d="M16.0508 0.232422L11.6226 11.7785H14.5959L15.3968 9.49673H19.1769L19.9634 11.7785H22.9338L18.52 0.241381L16.0508 0.232422ZM16.2784 6.99997L17.2868 4.16274L18.2808 6.99997H16.2784Z" fill="black"/>
<path d="M34.2134 6.84467L29.1051 0.232422H26.4343V11.7695H29.2175V4.95716L34.4669 11.7695H36.9936V0.232422H34.2134V6.84467Z" fill="black"/>
<path d="M46.0203 7.52315H47.8498V9.23146L47.7518 9.25834C47.4141 9.3597 47.0632 9.40605 46.7117 9.39572C44.7439 9.39572 43.2112 7.90244 43.2112 5.99701C43.2112 4.39622 44.5336 2.67297 46.6685 2.67297C47.9238 2.73709 49.1451 3.1174 50.2267 3.78099L50.558 3.96615V0.848182L50.4284 0.797411C49.2194 0.285622 47.9282 0.015079 46.6224 0C43.0642 0 40.2839 2.63415 40.2839 5.99701C40.2839 9.30911 43.0642 12 46.4755 12C47.8564 12.0139 49.2247 11.727 50.4918 11.1578L50.6214 11.0951V4.889H46.0116L46.0203 7.52315Z" fill="black"/>
<path d="M61.2384 6.76507C61.7113 6.46299 62.1006 6.03895 62.3682 5.53434C62.6359 5.02974 62.7727 4.46181 62.7654 3.88602C62.7654 2.53012 61.9558 0.230469 58.9191 0.230469H55.0728V11.7795H57.8646V7.59831H58.3889L61.2931 11.7795H64.7908L61.126 6.85167L61.2384 6.76507ZM58.6454 5.03584H57.8559V2.88552H58.677C59.5183 2.88552 59.9764 3.24988 59.9764 3.9338C59.9764 4.43256 59.7488 5.03584 58.6511 5.03584" fill="black"/>
<path d="M70.9446 0.232422L66.5164 11.7785H69.4839L70.282 9.49673H74.0707L74.8716 11.7785H77.8334L73.408 0.241381L70.9446 0.232422ZM71.1723 6.99997L72.1806 4.16274L73.1862 6.99997H71.1723Z" fill="black"/>
<path d="M86.229 4.24142L82.9907 0.230469H80.4524V11.7705H83.2327V4.7342L86.229 8.3569L89.2197 4.7342V11.7705H91.9999V0.230469H89.4645L86.229 4.24142Z" fill="black"/>
</g>
<defs>
<clipPath id="clip0_627_147">
<rect width="92" height="12" fill="white"/>
</clipPath>
</defs>
</svg>
