<svg width="38" height="38" viewBox="0 0 38 38" fill="none" xmlns="http://www.w3.org/2000/svg">
<path d="M25.8702 18.4804C25.7833 18.3227 25.6555 18.1915 25.5002 18.1004L16.7002 12.5804C16.5338 12.4697 16.3399 12.4074 16.1402 12.4004C15.9455 12.4052 15.7543 12.453 15.5802 12.5404C15.4039 12.6457 15.2535 12.7892 15.1402 12.9604C15.045 13.1314 14.9966 13.3246 15.0002 13.5204V24.5204C14.9976 24.716 15.0458 24.909 15.1402 25.0804C15.2505 25.2439 15.4024 25.3751 15.5802 25.4604C15.6667 25.5024 15.7571 25.5359 15.8502 25.5604C15.9395 25.5763 16.0309 25.5763 16.1202 25.5604C16.2163 25.5745 16.314 25.5745 16.4102 25.5604C16.5149 25.5326 16.6133 25.4851 16.7002 25.4204L25.5002 19.9404C25.6555 19.8493 25.7833 19.7181 25.8702 19.5604C25.9624 19.3886 26.0073 19.1953 26.0002 19.0004C26.005 18.8185 25.96 18.6387 25.8702 18.4804Z" fill="white"/>
</svg>
